<?xml version="1.0" encoding="iso-8859-1"?>
<!-- Generator: Adobe Illustrator 19.0.0, SVG Export Plug-In . SVG Version: 6.00 Build 0)  -->
<svg version="1.1" id="Layer_1" xmlns="http://www.w3.org/2000/svg" xmlns:xlink="http://www.w3.org/1999/xlink" x="0px" y="0px"
	 viewBox="0 0 512 512" width="48" height="48" xml:space="preserve">
<g>
	<g>
		<path d="M503.706,132.7h-97.313c-4.581,0-8.294,3.712-8.294,8.294s3.712,8.294,8.294,8.294h89.019v148.001L384.753,433.486
			H255.447V149.287h115.559c4.581,0,8.294-3.712,8.294-8.294s-3.712-8.294-8.294-8.294h-89.019V96.76
			c0-4.581-3.712-8.294-8.294-8.294H220.06V25.987c0-4.581-3.712-8.294-8.294-8.294H70.22c-4.581,0-8.294,3.712-8.294,8.294v62.479
			H8.294C3.712,88.466,0,92.179,0,96.76v44.233c0,4.581,3.712,8.294,8.294,8.294H26.54v35.936c0,4.581,3.712,8.294,8.294,8.294
			c4.581,0,8.294-3.712,8.294-8.294v-35.936H238.86v284.199H43.127V220.611c0-4.581-3.712-8.294-8.294-8.294
			c-4.581,0-8.294,3.712-8.294,8.294v212.875H8.294c-4.581,0-8.294,3.712-8.294,8.294v44.233c0,4.581,3.712,8.294,8.294,8.294h265.4
			c4.581,0,8.294-3.712,8.294-8.294v-35.94H388.7c2.498,0,4.861-1.126,6.437-3.064l115.006-141.546
			c1.201-1.478,1.857-3.325,1.857-5.229v-159.24C512,136.412,508.288,132.7,503.706,132.7z M78.514,34.281h124.959v54.186H78.514
			V34.281z M16.587,132.7v-27.646H265.4V132.7H16.587z M265.4,477.719H16.587v-27.646H265.4V477.719z"/>
	</g>
</g>
<g>
	<g>
		<path d="M450.626,159.24H415.24c-4.581,0-8.294,3.712-8.294,8.294v35.387c0,4.581,3.712,8.294,8.294,8.294h35.387
			c4.581,0,8.294-3.712,8.294-8.294v-35.387C458.92,162.952,455.208,159.24,450.626,159.24z M442.333,194.626h-18.799v-18.799
			h18.799V194.626z"/>
	</g>
</g>
<g>
	<g>
		<path d="M379.853,159.24h-35.387c-4.581,0-8.294,3.712-8.294,8.294v35.387c0,4.581,3.712,8.294,8.294,8.294h35.387
			c4.581,0,8.294-3.712,8.294-8.294v-35.387C388.147,162.952,384.435,159.24,379.853,159.24z M371.559,194.626H352.76v-18.799
			h18.799V194.626z"/>
	</g>
</g>
<g>
	<g>
		<path d="M309.08,159.24h-35.387c-4.581,0-8.294,3.712-8.294,8.294v35.387c0,4.581,3.712,8.294,8.294,8.294h35.387
			c4.581,0,8.294-3.712,8.294-8.294v-35.387C317.374,162.952,313.661,159.24,309.08,159.24z M300.786,194.626h-18.799v-18.799
			h18.799V194.626z"/>
	</g>
</g>
<g>
	<g>
		<path d="M309.08,371.559h-35.387c-4.581,0-8.294,3.712-8.294,8.294v35.387c0,4.581,3.712,8.294,8.294,8.294h35.387
			c4.581,0,8.294-3.712,8.294-8.294v-35.387C317.374,375.272,313.661,371.559,309.08,371.559z M300.786,406.946h-18.799v-18.799
			h18.799V406.946z"/>
	</g>
</g>
<g>
	<g>
		<path d="M379.853,371.559h-35.387c-4.581,0-8.294,3.712-8.294,8.294v35.387c0,4.581,3.712,8.294,8.294,8.294h35.387
			c4.581,0,8.294-3.712,8.294-8.294v-35.387C388.147,375.272,384.435,371.559,379.853,371.559z M371.559,406.946H352.76v-18.799
			h18.799V406.946z"/>
	</g>
</g>
<g>
</g>
<g>
</g>
<g>
</g>
<g>
</g>
<g>
</g>
<g>
</g>
<g>
</g>
<g>
</g>
<g>
</g>
<g>
</g>
<g>
</g>
<g>
</g>
<g>
</g>
<g>
</g>
<g>
</g>
</svg>
